<svg xmlns="http://www.w3.org/2000/svg" viewBox="0 0 55.3 55.3"><g id="Camada_2" data-name="Camada 2"><g id="Camada_1-2" data-name="Camada 1"><path d="M47.09,18.56A12.89,12.89,0,0,0,38,14.85a12.19,12.19,0,0,0-3.61.54,12.77,12.77,0,0,0-3.24,1.51,13.9,13.9,0,0,0-2.69,2.26,10.67,10.67,0,0,0-.81,1c-.25-.33-.51-.65-.79-1a13.37,13.37,0,0,0-2.65-2.27A12.37,12.37,0,0,0,21,15.39a12.72,12.72,0,0,0-8.61.46,13.6,13.6,0,0,0-4,2.7,12.77,12.77,0,0,0-2.79,4.07,12.57,12.57,0,0,0-1,5V38a2.45,2.45,0,0,0,2.45,2.45h0A2.45,2.45,0,0,0,9.39,38V27.65a7.46,7.46,0,0,1,.63-3,8.13,8.13,0,0,1,1.71-2.53,8.38,8.38,0,0,1,2.52-1.71,7.79,7.79,0,0,1,6.09,0,8,8,0,0,1,4.24,4.24,7.62,7.62,0,0,1,.62,3V38a2.45,2.45,0,0,0,2.45,2.45h0A2.45,2.45,0,0,0,30.1,38V27.65a7.46,7.46,0,0,1,.63-3,8.13,8.13,0,0,1,1.71-2.53A8.38,8.38,0,0,1,35,20.37a7.79,7.79,0,0,1,6.09,0,8,8,0,0,1,4.24,4.24,7.62,7.62,0,0,1,.62,3V38a2.45,2.45,0,0,0,2.45,2.45h0A2.45,2.45,0,0,0,50.81,38V27.65a12.84,12.84,0,0,0-3.72-9.09Z" style="fill:#b2cd01"/><rect width="55.3" height="55.3" style="fill:none"/></g></g></svg>